<svg xmlns="http://www.w3.org/2000/svg" xmlns:xlink="http://www.w3.org/1999/xlink" width="500" zoomAndPan="magnify" viewBox="0 0 375 374.999991" height="500" preserveAspectRatio="xMidYMid meet" version="1.0"><defs><g/><clipPath id="72c7ee5539"><path d="M 240 160 L 284 160 L 284 218 L 240 218 Z M 240 160 " clip-rule="nonzero"/></clipPath><clipPath id="566486868a"><path d="M 246.945312 159.398438 L 285.550781 164.933594 L 277.886719 218.386719 L 239.28125 212.851562 Z M 246.945312 159.398438 " clip-rule="nonzero"/></clipPath><clipPath id="cf43e7e31f"><path d="M 246.945312 159.398438 L 285.550781 164.933594 L 277.886719 218.386719 L 239.28125 212.851562 Z M 246.945312 159.398438 " clip-rule="nonzero"/></clipPath><clipPath id="450800a0cb"><path d="M 246.945312 159.398438 L 285.550781 164.933594 L 277.886719 218.386719 L 239.28125 212.851562 Z M 246.945312 159.398438 " clip-rule="nonzero"/></clipPath><clipPath id="3bf954934a"><path d="M 246.96875 159.402344 L 285.558594 164.933594 L 277.886719 218.425781 L 239.296875 212.894531 Z M 246.96875 159.402344 " clip-rule="nonzero"/></clipPath><clipPath id="13f7155e2f"><path d="M 246.96875 159.402344 L 285.523438 164.929688 L 277.859375 218.386719 L 239.300781 212.855469 Z M 246.96875 159.402344 " clip-rule="nonzero"/></clipPath></defs><g clip-path="url(#72c7ee5539)"><g clip-path="url(#566486868a)"><g clip-path="url(#cf43e7e31f)"><g clip-path="url(#450800a0cb)"><g clip-path="url(#3bf954934a)"><g clip-path="url(#13f7155e2f)"><path fill="#100f0d" d="M 261.496094 178.902344 L 245.6875 174.792969 L 254.648438 166.269531 Z M 255.175781 166.226562 L 275.6875 170.078125 L 282.320312 181.265625 L 262.125 179.046875 Z M 257.457031 208.527344 L 241.523438 202.316406 L 240.6875 208.402344 L 256.5625 214.589844 Z M 278.011719 210.507812 L 257.980469 208.671875 L 257.089844 214.695312 L 277.0625 216.523438 Z M 259.972656 191.488281 L 257.550781 207.878906 L 241.613281 201.664062 L 242.636719 194.21875 C 247.199219 199.730469 250.46875 197.277344 253.992188 194.632812 C 255.84375 193.242188 257.765625 191.800781 259.972656 191.488281 Z M 281.347656 189.414062 L 278.121094 209.820312 L 258.082031 207.980469 L 260.496094 191.632812 C 267.128906 197.601562 270.546875 194.957031 274.007812 192.273438 C 276.167969 190.597656 278.347656 188.90625 281.347656 189.414062 Z M 281.960938 188.988281 C 282 189.054688 282.023438 189.132812 282.03125 189.214844 C 282.042969 189.367188 281.976562 189.484375 281.882812 189.503906 L 277.527344 217.050781 C 277.503906 217.1875 277.421875 217.257812 277.320312 217.246094 L 256.824219 215.367188 L 256.796875 215.367188 L 256.796875 215.363281 L 256.789062 215.363281 L 256.78125 215.359375 L 256.773438 215.359375 L 256.769531 215.355469 L 256.761719 215.355469 L 240.394531 208.976562 L 240.34375 208.949219 C 240.203125 208.867188 240.113281 208.65625 240.136719 208.480469 L 242.199219 193.453125 L 242.199219 193.445312 L 242.203125 193.421875 L 244.757812 174.824219 L 244.757812 174.800781 L 244.761719 174.796875 L 244.761719 174.777344 L 244.769531 174.757812 L 244.769531 174.75 L 244.777344 174.734375 L 244.777344 174.730469 L 244.789062 174.710938 L 244.789062 174.703125 L 244.804688 174.679688 L 244.820312 174.660156 L 244.824219 174.65625 L 244.828125 174.65625 L 244.832031 174.652344 L 254.421875 165.527344 L 254.996094 160.808594 C 255.007812 160.660156 255.09375 160.5625 255.214844 160.582031 L 276.761719 164.6875 C 276.792969 164.691406 276.828125 164.707031 276.859375 164.730469 C 276.996094 164.832031 277.074219 165.050781 277.039062 165.21875 L 276.0625 169.75 L 283.023438 181.492188 C 283.066406 181.5625 283.089844 181.644531 283.097656 181.71875 L 283.097656 181.722656 C 283.101562 181.765625 283.097656 181.808594 283.089844 181.847656 L 283.089844 181.855469 Z M 260.59375 190.984375 C 267.003906 196.800781 270.320312 194.230469 273.679688 191.628906 C 275.9375 189.875 278.21875 188.109375 281.453125 188.742188 L 282.523438 181.984375 L 262.25 179.757812 Z M 242.730469 193.523438 C 247.078125 198.929688 250.25 196.554688 253.667969 193.984375 C 255.632812 192.511719 257.675781 190.976562 260.082031 190.746094 L 261.722656 179.648438 L 245.222656 175.363281 Z M 275.578125 169.363281 L 276.449219 165.320312 L 255.46875 161.324219 L 254.964844 165.492188 L 275.578125 169.363281 " fill-opacity="1" fill-rule="evenodd"/></g></g></g></g></g></g><g fill="#000000" fill-opacity="1"><g transform="translate(89.416765, 208.124986)"><g><path d="M 11.453125 1.726562 L 11.453125 -1.84375 C 9.8125 -0.222656 8.4375 0.585938 7.324219 0.585938 C 4.316406 0.585938 2.8125 -1.6875 2.8125 -6.238281 L 2.8125 -25.015625 C 2.8125 -27.125 3.230469 -28.816406 4.070312 -30.085938 C 4.949219 -31.429688 6.191406 -32.105469 7.792969 -32.105469 C 9.042969 -32.105469 10.261719 -31.5 11.453125 -30.289062 L 11.453125 -31.839844 L 15.234375 -31.839844 L 15.234375 1.199219 C 15.234375 4.226562 14.707031 6.453125 13.652344 7.878906 C 12.597656 9.304688 10.867188 10.019531 8.464844 10.019531 C 7.273438 10.019531 6.191406 9.792969 5.214844 9.34375 L 5.828125 6.53125 C 6.609375 6.648438 7.246094 6.707031 7.734375 6.707031 C 10.214844 6.707031 11.453125 5.046875 11.453125 1.726562 Z M 8.582031 -3.191406 C 9.539062 -3.191406 10.496094 -4.011719 11.453125 -5.652344 L 11.453125 -25.808594 C 10.496094 -27.605469 9.5 -28.503906 8.464844 -28.503906 C 7.253906 -28.503906 6.648438 -27.378906 6.648438 -25.132812 L 6.648438 -6.414062 C 6.648438 -4.265625 7.292969 -3.191406 8.582031 -3.191406 Z M 8.582031 -3.191406 "/></g></g></g><g fill="#000000" fill-opacity="1"><g transform="translate(107.518696, 208.124986)"><g><path d="M 8.816406 0.527344 C 6.511719 0.527344 4.910156 -0.371094 4.011719 -2.167969 C 3.25 -3.652344 2.871094 -6.023438 2.871094 -9.285156 L 2.871094 -22.4375 C 2.871094 -25.699219 3.261719 -28.101562 4.042969 -29.644531 C 4.980469 -31.519531 6.589844 -32.457031 8.875 -32.457031 C 11.179688 -32.457031 12.78125 -31.546875 13.679688 -29.734375 C 14.441406 -28.210938 14.824219 -25.777344 14.824219 -22.4375 L 14.824219 -9.285156 C 14.824219 -5.945312 14.441406 -3.542969 13.679688 -2.078125 C 12.78125 -0.339844 11.160156 0.527344 8.816406 0.527344 Z M 8.875 -2.8125 C 10.242188 -2.8125 10.925781 -4.050781 10.925781 -6.53125 L 10.925781 -25.308594 C 10.925781 -27.75 10.242188 -28.972656 8.875 -28.972656 C 7.46875 -28.972656 6.765625 -27.769531 6.765625 -25.367188 L 6.765625 -6.648438 C 6.765625 -4.089844 7.46875 -2.8125 8.875 -2.8125 Z M 8.875 -2.8125 "/></g></g></g><g fill="#000000" fill-opacity="1"><g transform="translate(125.151969, 208.124986)"><g><path d="M 3.484375 -28.5625 L 0.90625 -28.5625 L 0.90625 -31.839844 L 3.484375 -31.839844 L 3.484375 -41.949219 L 7.324219 -41.949219 L 7.324219 -31.839844 L 9.902344 -31.839844 L 9.902344 -28.5625 L 7.324219 -28.5625 L 7.324219 0 L 3.484375 0 Z M 3.484375 -28.5625 "/></g></g></g><g fill="#000000" fill-opacity="1"><g transform="translate(135.960409, 208.124986)"><g/></g></g><g fill="#000000" fill-opacity="1"><g transform="translate(147.061761, 208.124986)"><g><path d="M 10.925781 -32.105469 C 12.566406 -32.105469 13.828125 -31.082031 14.707031 -29.03125 C 16.1875 -31.003906 17.722656 -31.988281 19.304688 -31.988281 C 20.90625 -31.988281 22.019531 -31.351562 22.644531 -30.085938 C 23.152344 -29.070312 23.40625 -27.417969 23.40625 -25.132812 L 23.40625 0 L 19.507812 0 L 19.507812 -25.25 C 19.507812 -27.261719 19.019531 -28.269531 18.042969 -28.269531 C 17.046875 -28.269531 16.050781 -27.488281 15.058594 -25.925781 L 15.058594 0 L 11.160156 0 L 11.160156 -25.308594 C 11.160156 -27.320312 10.703125 -28.328125 9.785156 -28.328125 C 9.101562 -28.328125 8.09375 -27.546875 6.765625 -25.984375 L 6.765625 0 L 2.871094 0 L 2.871094 -31.839844 L 6.765625 -31.839844 L 6.765625 -29.644531 C 8.132812 -31.285156 9.519531 -32.105469 10.925781 -32.105469 Z M 10.925781 -32.105469 "/></g></g></g><g fill="#000000" fill-opacity="1"><g transform="translate(173.33593, 208.124986)"><g><path d="M 14.765625 -14.941406 L 6.765625 -14.941406 L 6.765625 -6.707031 C 6.765625 -4.109375 7.410156 -2.8125 8.699219 -2.8125 C 10.144531 -2.8125 10.867188 -4.296875 10.867188 -7.265625 L 10.867188 -11.042969 L 14.765625 -11.042969 L 14.765625 -8.464844 C 14.765625 -2.429688 12.742188 0.585938 8.699219 0.585938 C 6.414062 0.585938 4.824219 -0.320312 3.925781 -2.136719 C 3.183594 -3.621094 2.8125 -6.003906 2.8125 -9.285156 L 2.8125 -22.4375 C 2.8125 -25.738281 3.183594 -28.132812 3.925781 -29.617188 C 4.84375 -31.46875 6.472656 -32.398438 8.816406 -32.398438 C 12.78125 -32.398438 14.765625 -29.65625 14.765625 -24.167969 Z M 6.765625 -25.015625 L 6.765625 -18.601562 L 10.925781 -18.601562 L 10.925781 -24.664062 C 10.925781 -26.226562 10.769531 -27.34375 10.457031 -28.019531 C 10.144531 -28.691406 9.558594 -29.03125 8.699219 -29.03125 C 7.410156 -29.03125 6.765625 -27.691406 6.765625 -25.015625 Z M 6.765625 -25.015625 "/></g></g></g><g fill="#000000" fill-opacity="1"><g transform="translate(190.969203, 208.124986)"><g><path d="M 2.871094 -44.527344 L 6.765625 -44.527344 L 6.765625 0 L 2.871094 0 Z M 2.871094 -44.527344 "/></g></g></g><g fill="#000000" fill-opacity="1"><g transform="translate(200.635282, 208.124986)"><g><path d="M 6.707031 -18.367188 L 8.085938 -18.367188 L 11.21875 -31.722656 L 15.117188 -31.722656 L 11.394531 -17.75 C 12.722656 -17.066406 13.617188 -16.320312 14.074219 -15.511719 C 14.535156 -14.699219 14.765625 -13.445312 14.765625 -11.746094 L 14.765625 0 L 10.925781 0 L 10.925781 -11.628906 C 10.925781 -13.796875 10.183594 -14.882812 8.699219 -14.882812 L 6.707031 -14.882812 L 6.707031 0 L 2.871094 0 L 2.871094 -44.527344 L 6.707031 -44.527344 Z M 6.707031 -18.367188 "/></g></g></g><g fill="#000000" fill-opacity="1"><g transform="translate(218.268555, 208.124986)"><g><path d="M 10.75 -24.34375 C 10.066406 -22.449219 9.640625 -20.835938 9.476562 -19.507812 C 9.308594 -18.179688 9.207031 -15.699219 9.167969 -12.070312 L 6.179688 -12.070312 C 6.101562 -13.417969 6.0625 -14.65625 6.0625 -15.789062 C 6.0625 -19.539062 6.425781 -22.4375 7.148438 -24.488281 L 10.253906 -33.363281 C 10.546875 -34.144531 10.691406 -35.179688 10.691406 -36.46875 C 10.691406 -40.121094 9.667969 -41.949219 7.617188 -41.949219 C 6.445312 -41.949219 5.683594 -41.382812 5.332031 -40.25 C 5.058594 -39.429688 4.902344 -37.75 4.863281 -35.210938 L 1.492188 -35.210938 C 1.492188 -38.824219 1.882812 -41.34375 2.664062 -42.769531 C 3.5625 -44.410156 5.253906 -45.230469 7.734375 -45.230469 C 12.1875 -45.230469 14.414062 -42.59375 14.414062 -37.320312 C 14.414062 -35.503906 14.1875 -33.980469 13.738281 -32.75 Z M 5.273438 0 L 5.273438 -5.332031 L 9.550781 -5.332031 L 9.550781 0 Z M 5.273438 0 "/></g></g></g></svg>